<svg xmlns="http://www.w3.org/2000/svg" xmlns:xlink="http://www.w3.org/1999/xlink" width="1000" zoomAndPan="magnify" viewBox="0 0 750 749.999995" height="1000" preserveAspectRatio="xMidYMid meet" version="1.0"><defs><g/><clipPath id="706a979d0d"><path d="M 19.800781 27.550781 L 405 27.550781 L 405 386 L 19.800781 386 Z M 19.800781 27.550781 " clip-rule="nonzero"/></clipPath><clipPath id="9a253574aa"><path d="M 45 29 L 686 29 L 686 722.496094 L 45 722.496094 Z M 45 29 " clip-rule="nonzero"/></clipPath><clipPath id="ae03c89781"><path d="M 322 397 L 730.050781 397 L 730.050781 722.496094 L 322 722.496094 Z M 322 397 " clip-rule="nonzero"/></clipPath><clipPath id="5d4326a78f"><rect x="0" width="11" y="0" height="44"/></clipPath><clipPath id="c275f54391"><rect x="0" width="11" y="0" height="44"/></clipPath><clipPath id="52c5650c3b"><rect x="0" width="10" y="0" height="44"/></clipPath></defs><g clip-path="url(#706a979d0d)"><path fill="#00d46e" d="M 118.785156 294.289062 C 146.25 208.578125 217.003906 142.246094 305.3125 121.015625 L 404.058594 29.285156 C 391.660156 27.933594 379.054688 27.246094 366.300781 27.246094 C 174.960938 27.246094 19.875 182.316406 19.875 373.671875 C 19.875 377.785156 19.941406 381.867188 20.089844 385.925781 L 55.304688 353.28125 Z M 118.785156 294.289062 " fill-opacity="1" fill-rule="evenodd"/></g><g clip-path="url(#9a253574aa)"><path fill="#00d46e" d="M 208.417969 473.042969 L 531.449219 173.027344 L 595.308594 113.726562 L 685.832031 29.652344 L 519.902344 29.652344 L 495.640625 52.179688 L 422.695312 119.949219 L 109.140625 411.242188 L 45.445312 470.3125 L 297.941406 722.792969 L 458.167969 722.792969 L 368.871094 633.511719 Z M 208.417969 473.042969 " fill-opacity="1" fill-rule="evenodd"/></g><g clip-path="url(#ae03c89781)"><path fill="#00d46e" d="M 405.316406 397.988281 L 322.390625 475.167969 L 358.835938 511.734375 L 569.910156 722.792969 L 730.136719 722.792969 L 618.511719 611.183594 L 557.253906 549.921875 Z M 405.316406 397.988281 " fill-opacity="1" fill-rule="evenodd"/></g><path fill="#00d46e" d="M 584.191406 232.003906 C 610.722656 272.75 626.152344 321.40625 626.152344 373.660156 C 626.152344 413.472656 617.203125 451.203125 601.191406 484.929688 L 665.195312 548.921875 C 695.40625 497.519531 712.730469 437.613281 712.730469 373.660156 C 712.730469 298.617188 688.875 229.148438 648.332031 172.417969 Z M 584.191406 232.003906 " fill-opacity="1" fill-rule="evenodd"/><g transform="matrix(1, 0, 0, 1, 370, 353)"><g clip-path="url(#5d4326a78f)"><g fill="#000000" fill-opacity="1"><g transform="translate(0.992172, 33.250001)"><g><path d="M 4 0.21875 C 2.84375 0.21875 2.265625 -0.503906 2.265625 -1.953125 C 2.265625 -3.398438 2.84375 -4.125 4 -4.125 C 5.15625 -4.125 5.734375 -3.398438 5.734375 -1.953125 C 5.734375 -0.503906 5.15625 0.21875 4 0.21875 Z M 4 0.21875 "/></g></g></g></g></g><g transform="matrix(1, 0, 0, 1, 370, 353)"><g clip-path="url(#c275f54391)"><g fill="#000000" fill-opacity="1"><g transform="translate(0.992172, 33.250001)"><g><path d="M 4 0.21875 C 2.84375 0.21875 2.265625 -0.503906 2.265625 -1.953125 C 2.265625 -3.398438 2.84375 -4.125 4 -4.125 C 5.15625 -4.125 5.734375 -3.398438 5.734375 -1.953125 C 5.734375 -0.503906 5.15625 0.21875 4 0.21875 Z M 4 0.21875 "/></g></g></g></g></g><g transform="matrix(1, 0, 0, 1, 294, 566)"><g clip-path="url(#52c5650c3b)"><g fill="#00d46e" fill-opacity="1"><g transform="translate(0.280213, 33.294053)"><g><path d="M 4 0.21875 C 2.84375 0.21875 2.265625 -0.503906 2.265625 -1.953125 C 2.265625 -3.398438 2.84375 -4.125 4 -4.125 C 5.15625 -4.125 5.734375 -3.398438 5.734375 -1.953125 C 5.734375 -0.503906 5.15625 0.21875 4 0.21875 Z M 4 0.21875 "/></g></g></g></g></g></svg>