<svg xmlns="http://www.w3.org/2000/svg" xmlns:xlink="http://www.w3.org/1999/xlink" width="2000" zoomAndPan="magnify" viewBox="0 0 1500 1499.999933" height="2000" preserveAspectRatio="xMidYMid meet" version="1.0"><defs><clipPath id="099f6d8043"><path d="M 39.605469 55.105469 L 809 55.105469 L 809 772 L 39.605469 772 Z M 39.605469 55.105469 " clip-rule="nonzero"/></clipPath><clipPath id="7545c34660"><path d="M 90 59 L 1372 59 L 1372 1444.855469 L 90 1444.855469 Z M 90 59 " clip-rule="nonzero"/></clipPath><clipPath id="876d2f6f3a"><path d="M 644 795 L 1460.105469 795 L 1460.105469 1444.855469 L 644 1444.855469 Z M 644 795 " clip-rule="nonzero"/></clipPath></defs><g clip-path="url(#099f6d8043)"><path fill="#00bf63" d="M 237.566406 588.582031 C 292.5 417.160156 434.007812 284.496094 610.621094 242.03125 L 808.117188 58.574219 C 783.316406 55.867188 758.109375 54.488281 732.605469 54.488281 C 349.917969 54.488281 39.746094 364.632812 39.746094 747.347656 C 39.746094 755.570312 39.882812 763.738281 40.179688 771.851562 L 110.609375 706.558594 Z M 237.566406 588.582031 " fill-opacity="1" fill-rule="evenodd"/></g><g clip-path="url(#7545c34660)"><path fill="#00bf63" d="M 416.832031 946.085938 L 1062.898438 346.054688 L 1190.613281 227.453125 L 1371.664062 59.304688 L 1039.800781 59.304688 L 991.28125 104.363281 L 845.390625 239.894531 L 218.28125 822.480469 L 90.890625 940.621094 L 595.882812 1445.585938 L 916.332031 1445.585938 L 737.742188 1267.023438 Z M 416.832031 946.085938 " fill-opacity="1" fill-rule="evenodd"/></g><g clip-path="url(#876d2f6f3a)"><path fill="#00bf63" d="M 810.632812 795.976562 L 644.78125 950.332031 L 717.675781 1023.464844 L 1139.820312 1445.585938 L 1460.269531 1445.585938 L 1237.027344 1222.367188 L 1114.503906 1099.847656 Z M 810.632812 795.976562 " fill-opacity="1" fill-rule="evenodd"/></g><path fill="#00bf63" d="M 1168.382812 464.003906 C 1221.449219 545.496094 1252.308594 642.808594 1252.308594 747.320312 C 1252.308594 826.945312 1234.402344 902.40625 1202.378906 969.859375 L 1330.390625 1097.84375 C 1390.8125 995.039062 1425.460938 875.222656 1425.460938 747.320312 C 1425.460938 597.238281 1377.75 458.296875 1296.664062 344.835938 Z M 1168.382812 464.003906 " fill-opacity="1" fill-rule="evenodd"/></svg>